<?xml version="1.0" encoding="utf-8"?>
<!-- Generator: Adobe Illustrator 26.0.1, SVG Export Plug-In . SVG Version: 6.00 Build 0)  -->
<svg version="1.1" id="Layer_1" xmlns="http://www.w3.org/2000/svg" xmlns:xlink="http://www.w3.org/1999/xlink" x="0px" y="0px"
	 viewBox="0 0 311.8 85" style="enable-background:new 0 0 311.8 85;" xml:space="preserve">
<style type="text/css">
	.st0{fill:#FFFFFF;}
	.st1{fill:#C93F20;}
</style>
<g>
	<g>
		<path class="st0" d="M26.5,39.7v18.6c0,4.4,1.1,7.5,6.2,7.5c5.1,0,6.2-3.1,6.2-7.5V39.7h12.3v20.9c0,11.4-8.1,15-18.5,15
			c-10.4,0-18.5-3.5-18.5-15V39.7H26.5z"/>
		<path class="st0" d="M70.9,52.2l12.8-12.5h16.9L83.2,55.8l18.5,18.7H84.4L70.9,60.3v14.2H58.6V10.1h12.3V52.2z"/>
		<path class="st0" d="M140.9,74.5h-12.3v-3.9h-0.1c-2.2,3.5-6.4,5-10.5,5c-10.3,0-17.5-8.6-17.5-18.6c0-10,7.1-18.5,17.4-18.5
			c4,0,8.2,1.5,10.8,4.5v-3.4h12.3V74.5z M113.1,57.1c0,4.4,2.9,7.8,7.9,7.8s7.9-3.4,7.9-7.8c0-4.3-2.9-7.9-7.9-7.9
			S113.1,52.9,113.1,57.1z"/>
		<path class="st0" d="M174,51c-1.8-1.4-4-2.4-6.4-2.4c-4.7,0-8.5,3.7-8.5,8.5c0,5,3.6,8.5,8.7,8.5c2.2,0,4.5-0.9,6.2-2.4v10.4
			c-2.7,1.4-5.7,2-8.7,2c-10.3,0-18.9-7.7-18.9-18.2c0-11.2,8.5-18.9,19.4-18.9c2.8,0,5.7,0.7,8.1,2V51z"/>
		<path class="st0" d="M193.6,10.1v34h0.1c2.8-3.8,6.3-5.6,11.1-5.6c8.8,0,13.1,5.8,13.1,14.6v21.3h-12.3V56.6
			c0-4.1-0.6-8.3-5.6-8.3c-4.9,0-6.4,4.2-6.4,8.3v17.8h-12.3V10.1H193.6z"/>
		<path class="st0" d="M263.8,74.5h-12.3v-3.9h-0.1c-2.2,3.5-6.4,5-10.5,5c-10.3,0-17.5-8.6-17.5-18.6c0-10,7.1-18.5,17.4-18.5
			c4,0,8.2,1.5,10.8,4.5v-3.4h12.3V74.5z M236,57.1c0,4.4,2.9,7.8,7.9,7.8c5,0,7.9-3.4,7.9-7.8c0-4.3-2.9-7.9-7.9-7.9
			C239,49.3,236,52.9,236,57.1z"/>
		<path class="st0" d="M283.9,45.4h0.1c2.4-4.3,6.4-6.2,11.2-6.2h2.4v11.9c-1.7-0.9-3.3-1.2-5.2-1.2c-6.8,0-8.5,4.5-8.5,10.5v14
			h-12.3V39.7h12.3V45.4z"/>
	</g>
	<g>
		<path class="st1" d="M209.3,27.6c0,2.7-2.2,4.9-4.9,4.9c-2.7,0-4.9-2.2-4.9-4.9c0-2.7,2.2-4.9,4.9-4.9
			C207.1,22.7,209.3,24.9,209.3,27.6z"/>
		<path class="st1" d="M229,17.2c-1.1-0.8-2.5-1.5-4-1.5c-2.9,0-5.3,2.3-5.3,5.3c0,3.1,2.2,5.3,5.4,5.3c1.3,0,2.8-0.5,3.8-1.5v6.5
			c-1.7,0.8-3.5,1.2-5.4,1.2c-6.4,0-11.7-4.8-11.7-11.3c0-6.9,5.3-11.7,12.1-11.7c1.8,0,3.5,0.4,5,1.3V17.2z"/>
		<path class="st1" d="M257.7,20.9c0,7.3-6.1,11.5-13,11.5c-6.9,0-13-4.1-13-11.5s6.1-11.5,13-11.5C251.6,9.4,257.7,13.6,257.7,20.9
			z M239.8,20.9c0,2.7,1.8,4.8,4.9,4.8c3.1,0,4.9-2.1,4.9-4.8c0-2.6-1.8-4.9-4.9-4.9C241.6,16.1,239.8,18.3,239.8,20.9z"/>
		<path class="st1" d="M268.7,12.8L268.7,12.8c1.9-2.4,4.1-3.4,6.9-3.4c3.1,0,5.8,1.3,7.4,4.1c1.5-2.7,4.4-4.1,7.3-4.1
			c5.5,0,7.4,3.6,7.4,8.5v13.8H290V21.4c0-2.2,0.1-5.9-3.2-5.9c-3.5,0-3.7,3.3-3.7,5.9v10.3h-7.7V21.4c0-2.4,0-6.1-3.4-6.1
			c-3.4,0-3.4,3.7-3.4,6.1v10.3h-7.7V10.1h7.7V12.8z"/>
	</g>
</g>
</svg>
